#!OML:ASF F:\VICON\USERDATA\INSTALL\rory3\rory3.ASF
:FULLY-SPECIFIED
:DEGREES
3356
root 8.11753 17.7832 -8.67728 179.047 -31.3879 538.901
lowerback 11.2192 0.838325 1.56504
upperback 1.59985 1.23586 1.18277
thorax -4.60949 0.538286 0.171097
lowerneck -15.6035 2.21007 -10.3855
upperneck 40.9881 1.10056 5.64838
head 17.5981 -1.5594 4.33502
rclavicle 2.98177e-016 -1.74931e-014
rhumerus -39.7693 -16.867 -68.4673
rradius 38.9832
rwrist 3.43637
rhand -16.6339 8.99695
rfingers 7.12502
rthumb 9.58854 -20.7649
lclavicle 2.98177e-016 -1.74931e-014
lhumerus -33.8704 11.9913 79.6865
lradius 33.2131
lwrist -6.62606
lhand -25.0622 20.9681
lfingers 7.12502
lthumb 1.45149 50.9429
rfemur -3.17409 0.337943 12.5006
rtibia 29.0477
rfoot -14.9407 -14.0508
rtoes -14.3045
lfemur -3.97376 -5.31807 -4.85186
ltibia 22.925
lfoot -0.395757 2.54508
ltoes -20.4429
3357
root 8.01541 17.7671 -8.62302 179.286 -31.6906 538.697
lowerback 11.0016 0.848547 1.49904
upperback 1.56844 1.24063 1.13632
thorax -4.52198 0.544552 0.161713
lowerneck -15.6652 2.17385 -10.2874
upperneck 40.9671 1.0888 5.53882
head 17.6083 -1.55522 4.26655
rclavicle 1.15593e-013 -5.56597e-015
rhumerus -39.8614 -17.1485 -68.2915
rradius 38.9817
rwrist 3.75443
rhand -16.7605 9.69432
rfingers 7.12502
rthumb 9.46643 -20.0731
lclavicle 1.15593e-013 -5.56597e-015
lhumerus -33.7699 11.687 79.9302
lradius 33.4705
lwrist -6.4643
lhand -24.6301 21.0212
lfingers 7.12502
lthumb 1.86879 50.9927
rfemur -3.38577 0.252981 11.9154
rtibia 29.3966
rfoot -15.178 -14.3372
rtoes -14.1762
lfemur -3.52179 -5.50991 -5.35912
ltibia 21.8088
lfoot -1.00352 2.47167
ltoes -23.2976
3358
root 7.92089 17.7426 -8.56916 179.188 -31.9374 538.925
lowerback 10.8854 0.850878 1.6809
upperback 1.60078 1.26318 1.21904
thorax -4.42131 0.55309 0.144238
lowerneck -15.8755 2.14753 -10.2847
upperneck 41.0096 1.12586 5.48191
head 17.6867 -1.54199 4.25538
rclavicle 6.2319e-014 7.15625e-015
rhumerus -39.8242 -17.3406 -68.1841
rradius 38.9516
rwrist 4.17295
rhand -16.7304 10.0244
rfingers 7.12502
rthumb 9.49548 -19.7416
lclavicle 6.2319e-014 7.15625e-015
lhumerus -33.5124 11.6678 80.0644
lradius 33.4419
lwrist -6.52755
lhand -24.0423 20.7457
lfingers 7.12502
lthumb 2.43647 50.7115
rfemur -3.48525 0.536032 11.8601
rtibia 29.7397
rfoot -15.2961 -14.9603
rtoes -13.9482
lfemur -2.96331 -5.57644 -5.4429
ltibia 20.7295
lfoot -1.84116 2.32997
ltoes -23.7576
3359
root 7.83169 17.7233 -8.5139 179.093 -31.9613 539.245
lowerback 11.596 1.00549 2.29981
upperback 0.945048 1.59584 0.997041
thorax -5.47842 0.700925 -0.504686
lowerneck -15.3685 2.18383 -10.228
upperneck 41.3106 0.771797 5.95477
head 17.7582 -1.666 4.39883
rclavicle -8.56762e-014 2.46493e-014
rhumerus -41.1801 -17.7179 -67.983
rradius 39.0542
rwrist 4.05723
rhand -16.719 10.5605
rfingers 7.12502
rthumb 9.50647 -19.205
lclavicle -8.56762e-014 2.46493e-014
lhumerus -34.1849 10.5586 79.8448
lradius 33.4695
lwrist -6.29034
lhand -23.9683 20.6018
lfingers 7.12502
lthumb 2.50798 50.5668
rfemur -3.68545 1.17072 11.961
rtibia 30.0237
rfoot -15.1566 -15.6856
rtoes -13.8361
lfemur -2.45529 -5.40761 -5.44978
ltibia 19.7904
lfoot -2.80346 2.24729
ltoes -22.4318
3360
root 7.73758 17.7141 -8.45769 179.188 -31.9623 539.268
lowerback 11.2919 1.04807 2.12386
upperback 1.06324 1.62044 1.11358
thorax -5.19219 0.720645 -0.280332
lowerneck -15.5547 2.1868 -10.2903
upperneck 41.2133 0.869688 5.9781
head 17.7379 -1.61087 4.44258
rclavicle -4.63665e-014 -9.54166e-015
rhumerus -40.8865 -17.7726 -68.0276
rradius 39.0606
rwrist 3.85228
rhand -16.6752 10.6388
rfingers 7.12502
rthumb 9.5487 -19.1249
lclavicle -4.63665e-014 -9.54166e-015
lhumerus -33.8499 10.7685 80.031
lradius 33.5106
lwrist -6.19234
lhand -24.2346 21.0496
lfingers 7.12502
lthumb 2.25077 51.0174
rfemur -3.9277 1.63756 11.718
rtibia 30.3024
rfoot -14.9948 -16.2611
rtoes -13.8441
lfemur -2.07013 -5.05487 -5.80319
ltibia 18.9999
lfoot -3.48616 2.19454
ltoes -22.9828
3361
root 7.63643 17.7048 -8.40016 179.531 -32.2512 538.893
lowerback 11.3237 1.08872 2.00424
upperback 0.835239 1.6697 0.928562
thorax -5.44673 0.747964 -0.417739
lowerneck -15.2296 2.14855 -10.1998
upperneck 41.1256 0.706917 6.0309
head 17.6211 -1.65386 4.40956
rclavicle -2.9271e-014 2.70347e-014
rhumerus -41.3198 -18.0757 -67.9133
rradius 39.1068
rwrist 3.79806
rhand -16.4272 9.88952
rfingers 7.12502
rthumb 9.78803 -19.863
lclavicle -2.9271e-014 2.70347e-014
lhumerus -34.0292 10.2343 80.1014
lradius 33.6909
lwrist -6.01515
lhand -24.1779 21.347
lfingers 7.12502
lthumb 2.3055 51.3143
rfemur -4.10857 1.67966 10.9941
rtibia 30.5611
rfoot -14.9516 -16.587
rtoes -13.6162
lfemur -1.89377 -4.75738 -6.59641
ltibia 18.3855
lfoot -4.01303 2.06361
ltoes -23.851
3362
root 7.53549 17.6955 -8.34032 179.992 -32.6793 538.421
lowerback 11.213 1.10283 1.83318
upperback 0.667945 1.66801 0.725295
thorax -5.55973 0.752327 -0.533917
lowerneck -15.0268 2.0751 -10.0579
upperneck 40.9874 0.570778 5.96007
head 17.5086 -1.68334 4.31704
rclavicle 5.09883e-014 7.95139e-015
rhumerus -41.4745 -18.3285 -67.8675
rradius 38.9344
rwrist 3.90601
rhand -16.4169 9.5376
rfingers 7.12502
rthumb 9.79795 -20.2145
lclavicle 5.09883e-014 7.95139e-015
lhumerus -34.0458 9.63961 80.2085
lradius 33.838
lwrist -5.80796
lhand -24.0688 20.9882
lfingers 7.12502
lthumb 2.41089 50.9543
rfemur -4.3094 1.58037 10.1525
rtibia 30.7866
rfoot -14.8694 -16.8323
rtoes -13.2716
lfemur -1.89951 -4.41921 -7.49861
ltibia 17.8889
lfoot -4.52803 1.9155
ltoes -23.362
3363
root 7.44053 17.6916 -8.28365 180.333 -33.1055 538.035
lowerback 11.4002 1.15365 1.66307
upperback 0.35823 1.72869 0.582669
thorax -5.99078 0.784444 -0.605897
lowerneck -14.6977 2.04907 -10.0369
upperneck 41.019 0.437695 5.99003
head 17.4564 -1.74273 4.29588
rclavicle 5.73494e-014 1.43125e-014
rhumerus -41.877 -18.2982 -67.7291
rradius 38.7658
rwrist 3.97035
rhand -16.6437 9.73615
rfingers 7.12502
rthumb 9.57915 -20.0261
lclavicle 5.73494e-014 1.43125e-014
lhumerus -34.2981 8.90925 80.395
lradius 34.036
lwrist -5.4804
lhand -23.9978 20.8542
lfingers 7.12502
lthumb 2.47948 50.8195
rfemur -4.42812 1.71012 9.47689
rtibia 31.0183
rfoot -14.6763 -17.3156
rtoes -12.8271
lfemur -1.89761 -3.92383 -8.31992
ltibia 17.4295
lfoot -4.98553 1.87521
ltoes -22.4358
3364
root 7.35213 17.6972 -8.22736 180.611 -33.5618 537.656
lowerback 11.1801 1.08159 0.98077
upperback 0.468393 1.54885 0.787216
thorax -5.7787 0.718766 0.0274107
lowerneck -14.9399 2.09935 -10.1582
upperneck 41.0786 0.727878 5.72641
head 17.5233 -1.67375 4.25503
rclavicle 1.43125e-014 5.56597e-015
rhumerus -41.3446 -17.9318 -67.6594
rradius 38.6248
rwrist 4.21596
rhand -16.5555 9.92729
rfingers 7.12502
rthumb 9.66421 -19.831
lclavicle 1.43125e-014 5.56597e-015
lhumerus -34.107 9.07837 80.8171
lradius 34.2585
lwrist -5.21223
lhand -23.9913 20.944
lfingers 7.12502
lthumb 2.48573 50.9092
rfemur -4.50921 1.95127 8.8748
rtibia 31.2317
rfoot -14.3267 -17.9322
rtoes -12.4797
lfemur -1.93424 -3.46368 -9.13986
ltibia 17.0847
lfoot -5.4191 1.968
ltoes -21.7284
3365
root 7.26393 17.7022 -8.16708 180.933 -34.0489 537.296
lowerback 11.0917 0.97023 0.646248
upperback 0.460282 1.35727 0.743378
thorax -5.74536 0.634353 0.201688
lowerneck -15.1527 2.15418 -10.1871
upperneck 41.2276 0.844074 5.73502
head 17.6501 -1.63807 4.29673
rclavicle 2.57426e-014 -4.13472e-014
rhumerus -41.1669 -18.0254 -67.7361
rradius 38.7215
rwrist 4.61934
rhand -16.3233 10.178
rfingers 7.12502
rthumb 9.88827 -19.5698
lclavicle 2.57426e-014 -4.13472e-014
lhumerus -33.9262 9.22174 80.7998
lradius 34.2423
lwrist -5.24107
lhand -24.0774 20.6386
lfingers 7.12502
lthumb 2.40258 50.6048
rfemur -4.64354 2.11629 8.27734
rtibia 31.4072
rfoot -13.9177 -18.4501
rtoes -11.6045
lfemur -2.10329 -3.08071 -9.9724
ltibia 16.8774
lfoot -5.75712 2.13477
ltoes -20.6849
3366
root 7.17289 17.7017 -8.10545 181.252 -34.5584 536.859
lowerback 11.14 0.865193 0.569505
upperback 0.419996 1.19669 0.477038
thorax -5.81047 0.555369 -0.00975755
lowerneck -15.2894 2.16735 -10.1015
upperneck 41.2817 0.778685 5.93418
head 17.7217 -1.62271 4.37121
rclavicle 2.62396e-014 -3.18055e-015
rhumerus -41.2092 -18.4099 -67.962
rradius 38.9209
rwrist 4.7479
rhand -16.2188 10.3181
rfingers 7.12502
rthumb 9.98905 -19.4248
lclavicle 2.62396e-014 -3.18055e-015
lhumerus -33.6783 9.08017 80.5765
lradius 34.0914
lwrist -5.4121
lhand -24.0614 20.0041
lfingers 7.12502
lthumb 2.41805 49.9701
rfemur -4.64858 2.08226 7.59963
rtibia 31.5775
rfoot -13.4169 -18.8757
rtoes -11.0044
lfemur -2.27365 -2.78641 -10.8984
ltibia 16.729
lfoot -5.96212 2.2901
ltoes -19.5988
3367
root 7.08194 17.7042 -8.04288 181.541 -35.161 536.378
lowerback 10.7924 0.724248 0.249529
upperback 0.771005 0.950316 0.399697
thorax -5.25122 0.439105 0.135672
lowerneck -15.637 2.10413 -10.0064
upperneck 40.9787 0.904873 5.73377
head 17.6297 -1.52857 4.28559
rclavicle 3.57812e-014 -2.38542e-015
rhumerus -40.4197 -18.5046 -68.2962
rradius 38.8345
rwrist 4.62601
rhand -16.2583 10.5319
rfingers 7.12502
rthumb 9.95101 -19.2129
lclavicle 3.57812e-014 -2.38542e-015
lhumerus -32.888 9.12372 80.7112
lradius 33.8949
lwrist -5.29231
lhand -24.289 20.0789
lfingers 7.12502
lthumb 2.19821 50.0474
rfemur -4.5569 1.92693 6.899
rtibia 31.7458
rfoot -12.9184 -19.3302
rtoes -10.0114
lfemur -2.45925 -2.68072 -11.8519
ltibia 16.6824
lfoot -6.18266 2.44284
ltoes -18.2823
3368
root 6.99179 17.7115 -7.97955 181.772 -35.7754 535.985
lowerback 10.9612 0.645324 0.161665
upperback 0.709582 0.830164 0.265079
thorax -5.40915 0.381037 0.0604808
lowerneck -15.3771 2.06097 -9.86998
upperneck 40.7286 0.876251 5.55795
head 17.427 -1.51762 4.15884
rclavicle -4.69132e-014 1.59028e-015
rhumerus -40.6247 -18.6044 -68.3431
rradius 39.0012
rwrist 4.72919
rhand -16.214 10.5915
rfingers 7.12502
rthumb 9.9937 -19.1513
lclavicle -4.69132e-014 1.59028e-015
lhumerus -32.801 8.82563 80.7503
lradius 33.8804
lwrist -5.22836
lhand -24.3014 20.8837
lfingers 7.12502
lthumb 2.18629 50.8523
rfemur -4.50452 1.8069 6.28692
rtibia 31.9296
rfoot -12.6326 -19.7966
rtoes -7.49296
lfemur -2.60378 -2.72787 -12.7245
ltibia 16.699
lfoot -6.56703 2.65011
ltoes -18.182
3369
root 6.9036 17.7194 -7.9129 181.864 -36.3799 535.923
lowerback 11.1577 0.546145 0.39086
upperback 0.608485 0.727037 0.197089
thorax -5.62154 0.324407 -0.126432
lowerneck -15.2196 2.06091 -9.73572
upperneck 40.571 0.928149 5.36456
head 17.2957 -1.48425 4.04568
rclavicle -3.18055e-014 1.27222e-014
rhumerus -40.9648 -18.7515 -68.3946
rradius 39.3187
rwrist 4.84751
rhand -16.1873 10.5067
rfingers 7.12502
rthumb 10.0195 -19.2348
lclavicle -3.18055e-014 1.27222e-014
lhumerus -32.7718 8.48719 80.8091
lradius 34.0183
lwrist -5.1983
lhand -24.128 21.4079
lfingers 7.12502
lthumb 2.3537 51.3746
rfemur -4.54246 1.80137 6.01515
rtibia 32.1947
rfoot -12.3402 -20.3677
rtoes -4.64283
lfemur -2.75586 -3.11751 -13.271
ltibia 16.6208
lfoot -6.85367 2.89929
ltoes -18.2563
3370
root 6.81609 17.7289 -7.84499 181.976 -36.886 535.895
lowerback 10.6458 0.418978 0.145737
upperback 1.03342 0.525392 0.487718
thorax -4.89528 0.229226 0.352101
lowerneck -15.7843 2.06426 -9.89402
upperneck 40.4341 1.30399 5.04589
head 17.3311 -1.35834 4.00785
rclavicle -2.27608e-014 8.74653e-015
rhumerus -39.769 -18.4668 -68.6125
rradius 38.8926
rwrist 4.86702
rhand -16.7177 10.7033
rfingers 7.12502
rthumb 9.50775 -19.0622
lclavicle -2.27608e-014 8.74653e-015
lhumerus -31.9057 9.10358 81.1983
lradius 33.9392
lwrist -5.3837
lhand -24.1334 21.4734
lfingers 7.12502
lthumb 2.34848 51.4402
rfemur -4.73538 1.92278 5.79658
rtibia 32.543
rfoot -11.7947 -21.0929
rtoes -2.24105
lfemur -2.8779 -3.68571 -13.7251
ltibia 16.4234
lfoot -6.94222 3.04096
ltoes -18.0032
